<svg width="20" height="20" viewBox="0 0 20 20" fill="none" xmlns="http://www.w3.org/2000/svg">
<circle cx="10" cy="10" r="9" fill="#FF6760" stroke="#F6F8FB" stroke-width="2"/>
<path d="M9.74961 11.115C9.49961 11.115 9.25461 11.0717 9.01461 10.985C8.77461 10.8983 8.55961 10.7683 8.36961 10.595C8.18294 10.4183 8.03294 10.2017 7.91961 9.945C7.80628 9.685 7.74961 9.38167 7.74961 9.035C7.74961 8.71167 7.80961 8.40833 7.92961 8.125C8.04961 7.84167 8.21794 7.59333 8.43461 7.38C8.65128 7.16667 8.91128 6.99833 9.21461 6.875C9.51794 6.75167 9.85294 6.69 10.2196 6.69C10.5896 6.69 10.9213 6.74833 11.2146 6.865C11.5113 6.98167 11.7629 7.145 11.9696 7.355C12.1796 7.565 12.3396 7.81667 12.4496 8.11C12.5629 8.40333 12.6196 8.725 12.6196 9.075C12.6196 9.29833 12.5996 9.51 12.5596 9.71C12.5229 9.91 12.4679 10.1033 12.3946 10.29C12.3246 10.4733 12.2396 10.6533 12.1396 10.83C12.0396 11.0033 11.9279 11.1783 11.8046 11.355L10.1496 13.715C10.0929 13.795 10.0079 13.8633 9.89461 13.92C9.78461 13.9733 9.65794 14 9.51461 14H8.37961L10.6246 11.195C10.6813 11.125 10.7346 11.0567 10.7846 10.99C10.8346 10.9233 10.8829 10.8567 10.9296 10.79C10.7629 10.8967 10.5796 10.9783 10.3796 11.035C10.1796 11.0883 9.96961 11.115 9.74961 11.115ZM11.4346 8.95C11.4346 8.75333 11.4046 8.57833 11.3446 8.425C11.2846 8.26833 11.1996 8.13667 11.0896 8.03C10.9796 7.92333 10.8479 7.84167 10.6946 7.785C10.5446 7.72833 10.3796 7.7 10.1996 7.7C10.0129 7.7 9.84461 7.73167 9.69461 7.795C9.54461 7.855 9.41628 7.94 9.30961 8.05C9.20628 8.16 9.12628 8.29167 9.06961 8.445C9.01294 8.595 8.98461 8.76 8.98461 8.94C8.98461 9.34333 9.08794 9.65167 9.29461 9.865C9.50461 10.075 9.80128 10.18 10.1846 10.18C10.3846 10.18 10.5613 10.1483 10.7146 10.085C10.8713 10.0217 11.0029 9.935 11.1096 9.825C11.2163 9.715 11.2963 9.585 11.3496 9.435C11.4063 9.285 11.4346 9.12333 11.4346 8.95Z" fill="white"/>
</svg>
